PathFileType	4	(X/Y/Z) shrug_2kg_2.trc																										
DataRate	CameraRate	NumFrames	NumMarkers	Units	OrigDataRate	OrigDataStartFrame	OrigNumFrames																					
100	100	38	9	mm	100	361	480																					
Frame#	Time	gu			centelbow			EpL			centpxt8			centijc7			ij			ts			aa			ai		
		X1	Y1	Z1	X2	Y2	Z2	X3	Y3	Z3	X4	Y4	Z4	X5	Y5	Z5	X6	Y6	Z6	X7	Y7	Z7	X8	Y8	Z8	X9	Y9	Z9  
360	3.6	-106.355	-5.251	157.5	-136.438	-248.922	184.032	-121.788	-243.61	212.256	-46.816	-153.158	-8.669	-46.816	31.938	-8.669	0	0	0	-139.192	39.239	40.743	-129.144	31.289	159.32	-169.473	-70.162	41.216
361	3.61	-106.229	-5.668	157.285	-136.365	-249.343	183.719	-121.659	-244.056	211.918	-46.816	-153.158	-8.669	-46.816	31.938	-8.669	0	0	0	-139.471	39.487	40.871	-129.207	31.415	159.422	-169.657	-69.94	41.277
362	3.62	-106.044	-5.558	157.111	-136.045	-249.263	183.425	-121.282	-243.992	211.597	-46.816	-153.158	-8.669	-46.816	31.938	-8.669	0	0	0	-139.732	39.719	40.998	-129.287	31.518	159.524	-169.833	-69.732	41.323
363	3.63	-105.844	-5.392	157.035	-135.692	-249.127	183.235	-120.871	-243.871	211.38	-46.816	-153.158	-8.669	-46.816	31.938	-8.669	0	0	0	-139.884	39.781	41.137	-129.27	31.44	159.639	-169.939	-69.683	41.371
364	3.64	-105.675	-5.494	156.811	-135.449	-249.245	182.947	-120.568	-244.003	211.063	-46.816	-153.158	-8.669	-46.816	31.938	-8.669	0	0	0	-139.901	39.577	41.271	-129.113	31.092	159.746	-169.945	-69.889	41.413
365	3.65	-105.521	-5.834	156.548	-135.298	-249.59	182.642	-120.36	-244.362	210.73	-46.816	-153.158	-8.669	-46.816	31.938	-8.669	0	0	0	-139.835	39.219	41.343	-128.86	30.591	159.791	-169.891	-70.244	41.402
366	3.66	-105.343	-6.311	156.482	-135.162	-250.068	182.513	-120.179	-244.858	210.58	-46.816	-153.158	-8.669	-46.816	31.938	-8.669	0	0	0	-139.801	38.872	41.27	-128.625	30.102	159.689	-169.879	-70.585	41.251
367	3.67	-105.175	-6.78	156.509	-135.01	-250.543	182.468	-119.991	-245.349	210.519	-46.816	-153.158	-8.669	-46.816	31.938	-8.669	0	0	0	-139.822	38.586	41.175	-128.452	29.677	159.565	-169.911	-70.869	41.079
368	3.68	-105.063	-7.07	156.432	-134.856	-250.845	182.332	-119.8	-245.661	210.366	-46.816	-153.158	-8.669	-46.816	31.938	-8.669	0	0	0	-139.818	38.392	41.317	-128.286	29.351	159.681	-169.886	-71.069	41.138
369	3.69	-105.01	-7.208	156.354	-134.754	-250.995	182.185	-119.668	-245.822	210.204	-46.816	-153.158	-8.669	-46.816	31.938	-8.669	0	0	0	-139.871	38.323	41.684	-128.214	29.164	160.027	-169.879	-71.154	41.42
370	3.7	-104.991	-7.431	156.469	-134.758	-251.228	182.19	-119.654	-246.071	210.203	-46.816	-153.158	-8.669	-46.816	31.938	-8.669	0	0	0	-140.112	38.295	42.059	-128.351	29.03	160.384	-170.045	-71.202	41.715
371	3.71	-104.982	-7.871	156.655	-134.854	-251.67	182.231	-119.737	-246.539	210.241	-46.816	-153.158	-8.669	-46.816	31.938	-8.669	0	0	0	-140.335	38.156	42.385	-128.472	28.79	160.691	-170.21	-71.356	41.965
372	3.72	-104.986	-8.402	156.65	-135.003	-252.199	182.074	-119.866	-247.097	210.078	-46.816	-153.158	-8.669	-46.816	31.938	-8.669	0	0	0	-140.227	37.887	42.723	-128.248	28.423	161.01	-170.068	-71.635	42.238
373	3.73	-104.966	-8.876	156.499	-135.144	-252.669	181.765	-119.978	-247.6	209.76	-46.816	-153.158	-8.669	-46.816	31.938	-8.669	0	0	0	-139.892	37.596	43.042	-127.769	28.036	161.307	-169.705	-71.933	42.501
374	3.74	-104.835	-9.247	156.407	-135.176	-253.038	181.505	-119.98	-248.003	209.49	-46.816	-153.158	-8.669	-46.816	31.938	-8.669	0	0	0	-139.725	37.343	43.323	-127.415	27.666	161.559	-169.511	-72.193	42.718
375	3.75	-104.57	-9.489	156.435	-135.032	-253.281	181.38	-119.81	-248.275	209.356	-46.816	-153.158	-8.669	-46.816	31.938	-8.669	0	0	0	-139.866	37.12	43.703	-127.305	27.299	161.9	-169.622	-72.423	43.022
376	3.76	-104.28	-9.635	156.569	-134.814	-253.428	181.401	-119.567	-248.444	209.368	-46.816	-153.158	-8.669	-46.816	31.938	-8.669	0	0	0	-140.102	36.896	44.262	-127.206	26.922	162.41	-169.816	-72.658	43.517
377	3.77	-104.08	-9.766	156.805	-134.702	-253.559	181.537	-119.427	-248.597	209.492	-46.816	-153.158	-8.669	-46.816	31.938	-8.669	0	0	0	-140.221	36.649	44.875	-126.901	26.524	162.963	-169.885	-72.919	44.09
378	3.78	-103.878	-9.893	157.097	-134.64	-253.682	181.698	-119.329	-248.749	209.638	-46.816	-153.158	-8.669	-46.816	31.938	-8.669	0	0	0	-140.187	36.42	45.32	-126.37	26.123	163.337	-169.82	-73.155	44.496
379	3.79	-103.511	-9.975	157.382	-134.414	-253.762	181.817	-119.052	-248.866	209.735	-46.816	-153.158	-8.669	-46.816	31.938	-8.669	0	0	0	-140.151	36.284	45.453	-125.784	25.786	163.386	-169.777	-73.293	44.578
380	3.8	-103.027	-10.117	157.58	-134.054	-253.905	181.852	-118.608	-249.05	209.731	-46.816	-153.158	-8.669	-46.816	31.938	-8.669	0	0	0	-140.275	36.297	45.35	-125.337	25.612	163.195	-169.903	-73.279	44.445
381	3.81	-102.573	-10.609	157.666	-133.8	-254.389	181.764	-118.232	-249.588	209.585	-46.816	-153.158	-8.669	-46.816	31.938	-8.669	0	0	0	-140.456	36.471	45.235	-124.979	25.657	162.999	-170.079	-73.108	44.345
382	3.82	-102.228	-11.531	157.772	-133.776	-255.293	181.633	-118.057	-250.566	209.382	-46.816	-153.158	-8.669	-46.816	31.938	-8.669	0	0	0	-140.502	36.704	45.215	-124.568	25.804	162.91	-170.117	-72.877	44.358
383	3.83	-102.022	-12.457	158.068	-133.88	-256.207	181.631	-118.009	-251.56	209.307	-46.816	-153.158	-8.669	-46.816	31.938	-8.669	0	0	0	-140.444	36.821	45.259	-124.158	25.838	162.898	-170.073	-72.756	44.415
384	3.84	-101.85	-12.91	158.494	-133.872	-256.667	181.763	-117.864	-252.089	209.371	-46.816	-153.158	-8.669	-46.816	31.938	-8.669	0	0	0	-140.37	36.779	45.335	-123.813	25.693	162.927	-170.05	-72.784	44.471
385	3.85	-101.475	-13.051	158.796	-133.572	-256.82	181.835	-117.442	-252.295	209.381	-46.816	-153.158	-8.669	-46.816	31.938	-8.669	0	0	0	-140.222	36.677	45.385	-123.423	25.478	162.932	-169.973	-72.866	44.489
386	3.86	-100.803	-13.423	158.834	-133.032	-257.189	181.716	-116.795	-252.71	209.207	-46.816	-153.158	-8.669	-46.816	31.938	-8.669	0	0	0	-139.985	36.576	45.378	-122.932	25.283	162.879	-169.793	-72.952	44.468
387	3.87	-99.994	-14.008	158.675	-132.41	-257.76	181.442	-116.086	-253.322	208.888	-46.816	-153.158	-8.669	-46.816	31.938	-8.669	0	0	0	-139.763	36.566	45.381	-122.454	25.209	162.838	-169.593	-72.956	44.479
388	3.88	-99.245	-14.248	158.488	-131.764	-257.994	181.172	-115.383	-253.583	208.588	-46.816	-153.158	-8.669	-46.816	31.938	-8.669	0	0	0	-139.612	36.773	45.422	-122.07	25.364	162.84	-169.438	-72.75	44.531
389	3.89	-98.65	-14.037	158.433	-131.167	-257.789	181.063	-114.76	-253.388	208.465	-46.816	-153.158	-8.669	-46.816	31.938	-8.669	0	0	0	-139.522	37.061	45.507	-121.789	25.601	162.891	-169.344	-72.463	44.615
390	3.9	-98.251	-13.853	158.485	-130.767	-257.609	181.066	-114.349	-253.216	208.462	-46.816	-153.158	-8.669	-46.816	31.938	-8.669	0	0	0	-139.493	37.134	45.713	-121.627	25.62	163.072	-169.335	-72.384	44.808
391	3.91	-98.039	-13.939	158.508	-130.605	-257.693	181.032	-114.174	-253.312	208.423	-46.816	-153.158	-8.669	-46.816	31.938	-8.669	0	0	0	-139.493	36.947	46.03	-121.539	25.383	163.37	-169.364	-72.563	45.105
392	3.92	-97.952	-14.04	158.491	-130.559	-257.794	180.964	-114.114	-253.424	208.348	-46.816	-153.158	-8.669	-46.816	31.938	-8.669	0	0	0	-139.452	36.72	46.262	-121.412	25.111	163.585	-169.335	-72.787	45.32
393	3.93	-97.895	-13.865	158.48	-130.48	-257.626	180.902	-114.019	-253.263	208.278	-46.816	-153.158	-8.669	-46.816	31.938	-8.669	0	0	0	-139.377	36.669	46.261	-121.227	25.024	163.563	-169.252	-72.84	45.311
394	3.94	-97.806	-13.488	158.499	-130.341	-257.263	180.85	-113.865	-252.907	208.218	-46.816	-153.158	-8.669	-46.816	31.938	-8.669	0	0	0	-139.337	36.808	46.134	-121.064	25.131	163.414	-169.198	-72.705	45.184
395	3.95	-97.703	-13.303	158.568	-130.267	-257.081	180.843	-113.774	-252.739	208.203	-46.816	-153.158	-8.669	-46.816	31.938	-8.669	0	0	0	-139.329	36.922	46.093	-120.95	25.212	163.353	-169.196	-72.589	45.14
396	3.96	-97.596	-13.53	158.627	-130.307	-257.294	180.84	-113.795	-252.972	208.192	-46.816	-153.158	-8.669	-46.816	31.938	-8.669	0	0	0	-139.265	36.87	46.115	-120.797	25.126	163.357	-169.159	-72.634	45.157
397	3.97	-97.462	-13.925	158.562	-130.36	-257.666	180.748	-113.828	-253.363	208.09	-46.816	-153.158	-8.669	-46.816	31.938	-8.669	0	0	0	-139.107	36.753	45.976	-120.532	24.994	163.2	-169.024	-72.744	45.035
